<svg width="26" height="26" viewBox="0 0 26 26" fill="none" xmlns="http://www.w3.org/2000/svg">
<path d="M18.9927 0.347534C19.8661 0.761242 20.2389 1.80471 19.8252 2.67819L15.3306 12.1676L24.8201 16.6621C25.6936 17.0758 26.0663 18.1193 25.6526 18.9928C25.2389 19.8663 24.1954 20.239 23.3219 19.8253L13.8325 15.3308L9.33797 24.8202C8.92426 25.6937 7.88079 26.0664 7.00732 25.6527C6.13384 25.239 5.76112 24.1955 6.17483 23.322L10.6693 13.8326L1.1799 9.3381C0.306418 8.9244 -0.0662997 7.88093 0.347408 7.00745C0.761116 6.13397 1.80459 5.76125 2.67807 6.17496L12.1675 10.6695L16.662 1.18002C17.0757 0.306544 18.1192 -0.0661736 18.9927 0.347534Z" fill="#E7E7E7"/>
</svg>
