<svg width="42" height="42" viewBox="0 0 42 42" fill="none" xmlns="http://www.w3.org/2000/svg">
<g filter="url(#filter0_d_121_116)">
<path d="M21 0.333374C22.1506 0.333374 23.0833 1.26611 23.0833 2.41671V14.9167H35.5833C36.7339 14.9167 37.6666 15.8495 37.6666 17.0001C37.6666 18.1506 36.7339 19.0834 35.5833 19.0834H23.0833V31.5834C23.0833 32.734 22.1506 33.6667 21 33.6667C19.8494 33.6667 18.9166 32.734 18.9166 31.5834V19.0834H6.41665C5.26605 19.0834 4.33331 18.1506 4.33331 17.0001C4.33331 15.8495 5.26605 14.9167 6.41665 14.9167H18.9166V2.41671C18.9166 1.26611 19.8494 0.333374 21 0.333374Z" fill="#E7E7E7"/>
</g>
<defs>
<filter id="filter0_d_121_116" x="0.333313" y="0.333374" width="41.3333" height="41.3334" filterUnits="userSpaceOnUse" color-interpolation-filters="sRGB">
<feFlood flood-opacity="0" result="BackgroundImageFix"/>
<feColorMatrix in="SourceAlpha" type="matrix" values="0 0 0 0 0 0 0 0 0 0 0 0 0 0 0 0 0 0 127 0" result="hardAlpha"/>
<feOffset dy="4"/>
<feGaussianBlur stdDeviation="2"/>
<feComposite in2="hardAlpha" operator="out"/>
<feColorMatrix type="matrix" values="0 0 0 0 0 0 0 0 0 0 0 0 0 0 0 0 0 0 0.25 0"/>
<feBlend mode="normal" in2="BackgroundImageFix" result="effect1_dropShadow_121_116"/>
<feBlend mode="normal" in="SourceGraphic" in2="effect1_dropShadow_121_116" result="shape"/>
</filter>
</defs>
</svg>
